<svg width="23" height="22" viewBox="0 0 23 22" fill="none" xmlns="http://www.w3.org/2000/svg">
<path fill-rule="evenodd" clip-rule="evenodd" d="M9.66526 4.30435C9.66526 3.51194 10.3076 2.86957 11.1 2.86957C11.8924 2.86957 12.5348 3.51194 12.5348 4.30435C12.5348 5.09676 11.8924 5.73913 11.1 5.73913C10.3076 5.73913 9.66526 5.09676 9.66526 4.30435ZM14.6416 6.75138C13.8648 7.8736 12.5682 8.6087 11.1 8.6087C9.63183 8.6087 8.33532 7.8736 7.55846 6.75138C5.66445 7.93412 4.40439 10.0373 4.40439 12.4348C6.78161 12.4348 8.70873 14.3619 8.70873 16.7391C8.70873 17.3774 8.5698 17.9833 8.32053 18.5281C9.16715 18.9149 10.1084 19.1304 11.1 19.1304C12.0917 19.1304 13.0329 18.9149 13.8795 18.5281C13.6303 17.9833 13.4913 17.3774 13.4913 16.7391C13.4913 14.3619 15.4185 12.4348 17.7957 12.4348C17.7957 10.0373 16.5356 7.93412 14.6416 6.75138ZM20.6087 13.4811C20.6461 13.1374 20.6653 12.7883 20.6653 12.4348C20.6653 8.69206 18.5157 5.45141 15.3837 3.88006C15.1706 1.70199 13.3341 0 11.1 0C8.86598 0 7.02945 1.70199 6.81634 3.88006C3.6844 5.45141 1.53482 8.69206 1.53482 12.4348C1.53482 12.7883 1.554 13.1374 1.59139 13.4811C0.67802 14.2704 0.100037 15.4372 0.100037 16.7391C0.100037 19.1164 2.02716 21.0435 4.40439 21.0435C5.04563 21.0435 5.65411 20.9033 6.20087 20.6518C7.6338 21.508 9.30946 22 11.1 22C12.8906 22 14.5663 21.508 15.9992 20.6518C16.546 20.9033 17.1545 21.0435 17.7957 21.0435C20.1729 21.0435 22.1 19.1164 22.1 16.7391C22.1 15.4372 21.5221 14.2704 20.6087 13.4811ZM4.40439 15.3043C3.61198 15.3043 2.9696 15.9467 2.9696 16.7391C2.9696 17.5315 3.61198 18.1739 4.40439 18.1739C5.19679 18.1739 5.83917 17.5315 5.83917 16.7391C5.83917 15.9467 5.19679 15.3043 4.40439 15.3043ZM16.3609 16.7391C16.3609 15.9467 17.0033 15.3043 17.7957 15.3043C18.5881 15.3043 19.2305 15.9467 19.2305 16.7391C19.2305 17.5315 18.5881 18.1739 17.7957 18.1739C17.0033 18.1739 16.3609 17.5315 16.3609 16.7391Z" fill="black" fill-opacity="0.32"/>
</svg>
